<svg width="589" height="211" viewBox="0 0 589 211" fill="none" xmlns="http://www.w3.org/2000/svg">
<path d="M76.1943 88.08H74.0343L71.9943 87.96L68.2743 88.08L64.3143 88.44L61.1943 88.08L60.3543 87.48L60.2343 84.84V80.16L60.3543 77.88V68.52L60.2343 65.88V63.36L60.4743 59.88L60.5943 58.56V56.4L60.7143 53.16V39L60.5943 36.6L60.7143 34.44L60.3543 32.4L60.4743 29.28L60.7143 25.32V21L60.8343 18.6V6.35996L60.9543 1.91996L63.3543 -4.3869e-05L66.3543 2.51996L68.2743 4.19996L71.9943 7.55996L75.7143 11.04L80.8743 16.32L82.5543 18.12L84.3543 19.8L91.5543 26.4L92.9943 27.84L96.3543 31.08L98.2743 32.88L100.314 34.56L103.674 35.4L119.514 20.64L125.514 14.64L129.354 11.04L136.434 4.07995L140.154 0.83996L143.634 1.43996L143.874 5.27996L143.754 9.71996L143.994 13.92L144.114 17.28L144.234 20.4L143.994 22.08L144.234 24.72V46.8L144.114 51.96L143.874 54.48L143.994 58.68L144.234 62.4L143.874 66.36V69.72L143.994 72.96L143.874 76.8L144.234 81L144.114 83.28L143.514 86.16L140.634 86.76L121.434 86.88L118.434 86.4L117.114 83.16V71.52L117.234 69.12V58.44L117.354 56.28V54.12L117.714 50.64V36.36L115.674 37.08L111.954 40.32L108.474 43.44L105.114 46.8L102.114 48L100.314 47.04L91.9143 38.64L89.2743 36.24L87.7143 38.4V42.84L87.4743 44.64L87.5943 46.08L87.7143 48.6L87.5943 51L87.8343 53.52V56.52L87.4743 58.44L87.8343 60.84V66.36L87.5943 68.16L87.8343 69.72L87.4743 72L87.5943 74.88L87.3543 77.76L87.4743 80.52V86.52L83.1543 88.56H80.7543L76.1943 88.08ZM189.23 87.6L186.95 87.24L184.19 87.6L181.67 87.12H179.03L176.39 86.28L175.55 83.04L175.43 80.52L175.55 76.44L175.91 73.2L175.79 70.44L175.67 68.4V66.36L175.55 64.8L175.79 62.64L175.55 59.76L175.79 57.72L175.55 54.96L175.79 51.36L175.67 48.72L176.03 47.16V15.72L175.91 11.16L175.43 8.15996L177.11 6.11996L180.83 5.87996H199.79L203.27 5.99996L206.03 5.87996H208.91L213.11 5.75995L215.63 5.87996H219.59L221.75 6.23995L222.95 7.31995L223.43 9.95996L222.59 13.2L220.67 14.28L218.75 13.92L215.63 14.28L212.27 14.16L208.91 14.28H204.11L203.15 15.12V22.44L203.03 24.6V31.08L202.55 34.8V47.28L205.43 48.12L208.07 48H216.11L219.59 48.48L221.03 51.12L221.15 53.4L220.07 56.4L218.39 56.88L216.71 56.76H203.27L202.67 57.36L202.55 60.36V78.48L204.83 79.08L206.99 79.2H217.91L221.39 80.28L221.75 83.88V86.64L220.79 87.36L218.39 87.12H216.35L213.11 87.48L210.71 87.6L208.79 87.36L207.11 87.6L204.47 87.48H201.35L199.79 87.6L197.39 87.36L195.23 87.48L193.07 87.72L189.23 87.6ZM242.524 86.52L241.804 83.28V71.4L241.564 67.68L242.044 64.92L245.644 64.2H248.164L250.684 63.84L253.204 63.24L257.524 61.08L260.524 57.72L261.364 55.92L262.444 51.84L262.804 49.8L263.164 45.96V9.71996L263.644 6.35996L265.564 5.51996H268.444L272.044 5.63996H274.444L276.964 5.15995H278.644L281.044 5.27996L283.444 5.03996L285.724 5.75995L286.804 8.51995L286.924 10.44L286.804 14.28L286.684 17.88L286.564 20.04L286.804 22.44L286.564 24.36L286.444 28.56V40.2L286.324 42.72V51L285.844 53.64L285.604 55.92L285.364 58.08L284.524 63.12L283.684 65.76L281.404 70.44L280.204 72.48L277.564 76.32L276.244 78L274.684 79.44L270.964 81.96L269.044 83.04L267.004 84.12L262.804 85.44L260.644 86.04L258.484 86.28L252.964 86.52L250.204 86.88H245.884L242.524 86.52ZM329.503 87.6L327.223 87.24L324.463 87.6L321.943 87.12H319.303L316.663 86.28L315.823 83.04L315.703 80.52L315.823 76.44L316.183 73.2L316.063 70.44L315.943 68.4V66.36L315.823 64.8L316.063 62.64L315.823 59.76L316.063 57.72L315.823 54.96L316.063 51.36L315.943 48.72L316.303 47.16V15.72L316.183 11.16L315.703 8.15996L317.383 6.11996L321.103 5.87996H340.063L343.543 5.99996L346.303 5.87996H349.183L353.383 5.75995L355.903 5.87996H359.863L362.023 6.23995L363.223 7.31995L363.703 9.95996L362.863 13.2L360.943 14.28L359.023 13.92L355.903 14.28L352.543 14.16L349.183 14.28H344.383L343.423 15.12V22.44L343.303 24.6V31.08L342.823 34.8V47.28L345.703 48.12L348.343 48H356.383L359.863 48.48L361.303 51.12L361.423 53.4L360.343 56.4L358.663 56.88L356.983 56.76H343.543L342.943 57.36L342.823 60.36V78.48L345.103 79.08L347.263 79.2H358.183L361.663 80.28L362.023 83.88V86.64L361.063 87.36L358.663 87.12H356.623L353.383 87.48L350.983 87.6L349.063 87.36L347.383 87.6L344.743 87.48H341.623L340.063 87.6L337.663 87.36L335.503 87.48L333.343 87.72L329.503 87.6ZM390.957 86.16L390.237 83.04V75.72L390.477 71.28L390.117 68.4L390.237 65.52L390.357 63.48L390.237 59.4L390.117 57.36V33.84L390.237 29.16V22.2L390.357 18.24L390.117 15.24L390.237 12.48V9.11996L390.117 5.27996L390.717 2.39995L391.677 1.43996L393.717 1.55996L396.477 3.35996L399.237 5.51996L402.597 8.27996L406.317 11.52L410.157 14.64L413.757 17.52L418.437 21.48L424.437 26.16L428.157 29.16L429.957 30.48L431.637 31.68L435.477 34.56L437.517 33.84L437.397 31.56L437.157 28.32L437.037 24.96L436.917 22.56V10.92L437.277 6.83995L440.877 5.63996H443.277L446.397 6.35996L447.237 9.83996V15.24L447.477 19.56V23.4L447.717 27.12V34.8L447.957 38.64L448.077 42.48L447.717 47.04V49.56L447.837 54.12L447.957 57.84V61.56L447.837 64.2L448.077 65.28L447.957 68.52L448.197 74.16V84.48L444.717 86.28H441.957L438.597 85.8L438.117 82.56V77.28L437.517 74.04L433.317 70.92L431.637 69.6L428.157 66.96L421.197 61.44L417.837 58.68L416.157 57.12L412.317 54.12L403.317 46.92L401.157 45.36L400.437 46.32V49.32L400.557 52.92V56.76L400.437 60.48V71.4L400.797 73.44V83.52L400.437 86.4L397.917 86.88H393.717L390.957 86.16ZM517.694 87.24L512.654 86.88L510.374 86.64L508.214 86.28L506.054 85.8L501.614 84.36L499.214 83.52L496.934 82.56L492.854 80.4L489.014 77.76L487.214 76.32L485.534 74.88L483.974 73.2L481.574 70.2L479.534 66.6L478.334 64.2L476.414 59.4L475.694 57.12L475.094 54.6L474.734 52.2L474.614 47.52V43.32L474.974 38.76L475.454 36.36L476.894 31.92L477.614 29.76L478.454 27.72L479.414 25.68L480.614 23.76L483.734 19.68L487.334 15.96L490.694 13.08L492.614 11.76L494.534 10.56L496.454 9.47996L498.494 8.39996L502.814 6.59996L505.094 5.75995L507.494 5.03996L509.894 4.43996L514.334 3.59996L516.374 3.35996L520.454 3.11996H524.654L527.294 4.07995L527.774 7.43996V26.76L526.934 27.96L524.174 28.08L522.014 28.32L517.454 28.92L515.174 29.28L513.014 29.88L510.854 30.72L508.814 31.8L505.094 34.56L502.694 37.56L501.134 41.4L500.654 44.04V46.56L501.134 50.52L502.574 54L503.894 56.16L507.014 59.64L511.454 62.04L513.854 62.88L518.534 63.96L520.574 64.08L522.974 63.84L523.214 61.2V58.8L523.334 56.4L521.054 54H516.014L512.894 53.16L512.414 49.68L513.614 46.32L517.094 46.08H523.694L528.494 46.32L531.014 48.24L531.134 51.6V58.92L531.014 61.32V71.04L530.894 74.88L531.014 78.84V81.36L530.654 85.2L528.014 87L523.214 87.36L517.694 87.24ZM7.5599 209L4.3199 208.76H1.5599L0.719903 208.16L0.479903 205.04V186.2L0.599903 182.48L0.719903 179.72L0.599903 176L0.479903 173.6V162.44L-9.64403e-05 160.4L0.239902 157.64L-9.64403e-05 153.32L0.239902 149.12L-9.64403e-05 144.92V132.08L0.479903 128.72L1.4399 128L3.9599 127.64L7.9199 127.4L12.8399 127.16L18.1199 126.8H20.5199L25.1999 127.4L29.8799 127.64L32.1599 128L34.4399 128.6L36.7199 129.32L38.8799 130.4L42.5999 132.92L44.2799 134.24L45.7199 135.68L48.4799 139.88L50.2799 144.68L50.7599 146.72L51.3599 151.16L51.2399 153.32L50.6399 157.64L49.9199 159.56L48.2399 164.24L45.5999 168.92L44.0399 170.84L42.3599 172.76L40.4399 174.44L37.3199 176.48L36.2399 177.32L36.8399 178.04L38.1599 178.88L40.4399 180.56L41.8799 182.12L44.1599 185.72L44.8799 187.88L45.1199 191.84L44.8799 196.04L44.2799 198.08L43.3199 200.12L40.0799 204.2L35.8799 207.32L32.1599 208.4L29.2799 208.64L26.3999 209.12H11.0399L7.5599 209ZM27.9599 201.32L30.8399 201.08L33.9599 199.64L36.9599 196.16L37.5599 193.88L37.6799 191.6L36.5999 187.04L35.1599 185.24L31.4399 183.32L27.7199 183.08L25.7999 185.6L25.6799 188L25.9199 191.96L25.4399 194.24L25.5599 197.12L25.7999 199.16L26.0399 201.44L27.9599 201.32ZM32.5199 168.32L36.4799 165.56L39.7199 161.6L40.7999 159.68L41.5199 157.52L42.3599 152.6L42.2399 149.84L40.6799 144.92L39.4799 142.76L38.0399 140.84L35.5199 138.44L33.1199 137L31.1999 136.04L28.5599 135.56L25.7999 135.32L24.8399 135.8L24.7199 138.8V143.96L24.8399 148.88V153.32L24.9599 155.6L25.3199 158.36L25.0799 159.68L25.1999 161.84V164.6L25.3199 167.36L25.4399 169.4L28.1999 170L32.5199 168.32ZM92.3155 209.6L90.0355 209.24L87.2755 209.6L84.7555 209.12H82.1155L79.4755 208.28L78.6355 205.04L78.5155 202.52L78.6355 198.44L78.9955 195.2L78.8755 192.44L78.7555 190.4V188.36L78.6355 186.8L78.8755 184.64L78.6355 181.76L78.8755 179.72L78.6355 176.96L78.8755 173.36L78.7555 170.72L79.1155 169.16V137.72L78.9955 133.16L78.5155 130.16L80.1955 128.12L83.9155 127.88H102.876L106.356 128L109.116 127.88H111.996L116.196 127.76L118.716 127.88H122.676L124.836 128.24L126.036 129.32L126.516 131.96L125.676 135.2L123.756 136.28L121.836 135.92L118.716 136.28L115.356 136.16L111.996 136.28H107.196L106.236 137.12V144.44L106.116 146.6V153.08L105.636 156.8V169.28L108.516 170.12L111.156 170H119.196L122.676 170.48L124.116 173.12L124.236 175.4L123.156 178.4L121.476 178.88L119.796 178.76H106.356L105.756 179.36L105.636 182.36V200.48L107.916 201.08L110.076 201.2H120.996L124.476 202.28L124.836 205.88V208.64L123.876 209.36L121.476 209.12H119.436L116.196 209.48L113.796 209.6L111.876 209.36L110.196 209.6L107.556 209.48H104.436L102.876 209.6L100.476 209.36L98.3155 209.48L96.1555 209.72L92.3155 209.6ZM153.65 208.28L152.93 204.68V149.48L153.05 146L153.29 144.32L153.05 142.28L153.29 137.84L153.41 135.32V132.68L153.53 128.72L155.93 126.92L164.93 126.68L169.85 126.2H176.09L180.65 126.44L185.33 126.8L190.25 127.64L194.81 128.6L196.97 129.32L199.13 130.16L201.29 131.12L203.21 132.32L206.81 135.2L208.37 136.88L209.57 138.8L210.65 140.84L211.49 143L212.45 147.32L212.69 149.6L212.81 154.52L212.45 157.04L211.85 159.56L209.69 164.12L208.49 166.28L206.93 168.32L205.37 170.12L203.45 171.8L199.49 174.56L197.45 175.52L195.17 176.24L191.45 177.32L190.01 178.04L191.57 179.96L193.01 181.64L196.13 185L210.77 200.6L214.49 204.32L216.17 207.32L213.41 208.52L211.13 208.64H208.73L205.49 207.8L202.97 205.4L198.05 200.24L196.49 198.44L194.81 196.76L191.57 193.04L186.41 187.52L184.61 185.72L181.97 182.96L180.65 181.64L180.05 183.56V185.72L179.93 187.88V204.08L179.57 207.68L178.13 208.52H170.09L167.69 208.76L164.09 209L158.69 209.12L155.93 209.24L153.65 208.28ZM185.81 170.48L190.61 169.76L193.13 169.04L195.53 167.96L197.69 166.64L200.21 164.84L201.89 162.44L203.09 160.28L204.05 157.88L204.65 155.48L205.01 151.52V149L204.05 145.64L202.97 143.36L199.73 139.4L197.69 137.96L195.41 136.64L190.85 135.32L188.81 135.08H186.65L182.57 135.2L180.65 136.04L180.53 139.28V148.64L180.29 151.28L180.05 153.56L180.17 156.08V158.96L180.05 162.8V167.48L180.65 170.48L183.77 170.6L185.81 170.48ZM245.026 209.84L242.146 209L241.546 207.2V201.32L241.426 198.92V158.24L241.306 155.12L241.546 150.92L241.426 148.52L241.066 143.72L241.306 141.08L240.946 139.4V135.2L240.826 130.76V128.48L241.786 127.4L244.666 127.04H250.666L252.586 126.92H262.786L264.706 126.8L267.106 127.52L267.346 130.64L267.226 134.6L267.106 137.6L266.986 141.44V165.56L268.426 164.48L272.746 158.96L276.826 153.44L279.586 149.96L290.626 134.96L291.826 133.16L293.026 131.48L295.426 128.72L298.666 127.52H304.306L305.506 128.12L305.746 129.2L304.426 131.84L287.986 153.44L285.106 157.52L283.546 159.56L280.546 163.4L279.226 165.2L277.906 167.12L276.466 168.92L275.146 170.72L272.626 174.32L271.306 176.12L269.986 178.16L271.546 179.96L278.386 185.72L281.626 188.36L284.866 191.48L286.786 193.04L290.626 196.28L294.346 199.52L298.186 202.4L301.426 205.28L302.866 207.32L302.266 208.4L299.626 208.76L292.186 208.4L288.706 206.6L286.906 205.04L276.226 195.44L270.826 190.76L268.906 189.2L266.986 190.28L266.866 192.92V205.88L266.266 208.88L263.266 209.48L254.266 209.96H249.706L245.026 209.84ZM330.151 208.16L329.191 206.12V203L328.951 196.04L328.711 192.08V187.4L328.951 184.28V179.36L328.711 177.2L329.071 175.4L328.831 174.08L329.191 171.68V151.04L329.311 148.64V142.28L329.671 140.48V137.72L329.791 135.08L329.671 132.32L329.431 129.56L329.911 128.36L331.231 127.52L333.031 127.88L337.231 127.52H339.631L343.231 127.64L345.271 127.52L348.391 127.88L352.831 128L355.471 129.44V132.44L355.591 135.44L355.471 138.56L355.591 141.68L355.471 145.04L355.351 148.64L355.591 152.36L355.351 154.88L355.471 157.28L355.351 160.64L355.471 164.6L355.351 167.6L355.471 170.12L355.231 173.96V185.72L355.351 189.44L355.471 192.8L355.351 195.44L355.591 196.88L355.351 199.16L355.591 202.04L355.351 203.6L355.711 204.92L355.471 206.6L355.111 208.16L352.471 208.64H335.671L332.071 208.76L330.151 208.16ZM388.153 207.92L387.313 204.44V190.4L386.953 188.12L387.313 186.08V183.68L387.433 180.68L387.313 177.56L387.433 173.84L387.313 169.52V156.8L387.433 154.52V147.56L387.553 142.76L387.433 137.96L387.553 134.12L387.433 131.6L387.553 129.08L388.393 127.4H390.793L394.153 127.16L396.673 127.04L400.033 127.16L404.473 126.92H406.633L409.753 127.04H411.673L412.993 127.16L413.833 127.76L414.553 131V145.76L414.913 148.16L414.673 149.12L414.793 151.04L414.553 154.88V186.68L414.793 191.12L415.033 195.08L415.153 197.96L417.433 198.56H419.713L424.273 198.44H428.953L432.553 198.32L434.593 198.56L435.673 201.8L435.553 206.24L434.353 207.44H431.833L427.513 207.56H416.233L412.993 208.16L410.353 208.04L407.113 207.8L404.353 208.04L402.193 208.16H395.953L390.433 208.4L388.153 207.92ZM504.427 209.96H499.987L497.227 209L496.027 206.24L495.187 204.08L493.267 199.4L491.947 196.04L488.707 195.08H485.947L482.227 195.44H476.707L471.067 195.56H468.907L466.387 196.04L465.667 198.44L464.827 200.36L463.387 204.32L462.547 206.36L461.107 208.76L458.707 209L456.787 209.36L454.747 209.12L453.907 208.4L454.267 206.12L455.467 202.16L456.187 200.12L456.907 197.96L458.467 193.76L459.907 189.92L461.347 185.48L462.187 182.96L463.147 180.44L464.707 175.52L465.547 173.12L466.147 170.72L466.987 168.32L468.187 164.36L469.747 160.4L470.587 158L471.307 155.6L472.147 153.08L472.867 150.68L474.547 146L477.187 139.04L478.747 134.48L480.307 131L481.507 128.12L483.067 126.2L485.467 126.8L487.147 129.92L488.947 133.52L490.987 138.56L492.067 140.96L493.147 143.48L495.427 148.04L496.507 150.32L498.787 154.64L499.747 156.92L501.547 161L502.987 164.72L504.787 168.56L505.867 170.72L507.187 174.32L508.867 177.92L509.947 180.2L511.747 184.52L512.587 186.44L514.387 190.28L516.307 194L516.907 196.64L518.587 199.52L519.547 202.04L521.347 205.88V208.16L520.507 209.36L518.347 209.6L515.227 209.72L513.427 210.2L509.947 209.72L506.947 210.2L504.427 209.96ZM470.947 188.36L474.547 188.24L483.907 188.12L486.307 187.88L488.587 187.04L487.507 184.52L486.547 182.36L484.867 178.28L483.307 174.32L482.347 172.28L480.907 168.8L479.107 164.96L477.907 162.32L476.707 164.12L475.987 166.28L475.147 168.56L473.707 172.88L473.107 175.16L470.227 183.8L469.627 186.08L469.267 188.36H470.947ZM561.366 209.24L558.246 208.76L555.966 208.28L553.686 207.32L551.646 206.12L548.406 203.72L545.406 200.84L543.966 198.92L542.646 196.88L541.686 194.72L540.006 190.28L539.646 188.12L539.046 183.44L538.806 180.92L538.566 176V168.8L538.686 164.36L538.806 160.16L538.686 156.2L539.046 151.88V149.48L539.166 147.08V135.08L539.286 131L540.366 128.12L543.966 127.28H560.646L564.126 127.4L565.206 128.72V154.04L565.086 158.36V162.2L565.206 165.92V170L565.686 173.48L565.806 177.08L565.926 179.48L566.766 183.44L570.126 186.44L574.086 187.52L576.126 187.16L578.046 185.84L579.126 184.16L580.206 180.92L580.446 175.64V170.72L580.566 166.04L580.326 161.6L580.446 157.04V143.12L580.566 139.16V136.28L580.806 133.52V130.4L581.046 128.36L581.526 127.64L583.806 127.28L585.726 127.16L588.606 128.12L588.966 129.92V161.24L588.846 165.68L588.726 169.04V171.08L588.846 174.2L588.366 177.2L588.246 180.56L588.006 182.96L587.646 185.24L587.166 187.64L586.566 189.92L585.126 194.24L584.406 196.28L583.326 198.2L580.566 201.92L578.886 203.72L577.086 205.28L572.646 207.92L570.246 208.64L566.286 209.24L563.526 209.6L561.366 209.24Z" fill="white"/>
</svg>
